<svg width="50" height="55" viewBox="0 0 50 55" fill="none" xmlns="http://www.w3.org/2000/svg">
<circle cx="25" cy="27" r="25" fill="white"/>
<path d="M9.3125 27.0078C9.3125 20.9766 10.9297 16.3281 14.1641 13.0625C16.9766 10.2188 20.5547 8.79688 24.8984 8.79688C30.7109 8.79688 34.9609 10.7031 37.6484 14.5156C39.1328 16.6562 39.9297 18.8047 40.0391 20.9609H32.8203C32.3516 19.3047 31.75 18.0547 31.0156 17.2109C29.7031 15.7109 27.7578 14.9609 25.1797 14.9609C22.5547 14.9609 20.4844 16.0234 18.9688 18.1484C17.4531 20.2578 16.6953 23.25 16.6953 27.125C16.6953 31 17.4922 33.9062 19.0859 35.8438C20.6953 37.7656 22.7344 38.7266 25.2031 38.7266C27.7344 38.7266 29.6641 37.8984 30.9922 36.2422C31.7266 35.3516 32.3359 34.0156 32.8203 32.2344H39.9688C39.3438 36 37.7422 39.0625 35.1641 41.4219C32.6016 43.7812 29.3125 44.9609 25.2969 44.9609C20.3281 44.9609 16.4219 43.3672 13.5781 40.1797C10.7344 36.9766 9.3125 32.5859 9.3125 27.0078Z" fill="#1F2B51"/>
</svg>
