<svg width="537" height="649" viewBox="0 0 537 649" fill="none" xmlns="http://www.w3.org/2000/svg">
<rect y="409" width="537" height="240" fill="#3754A2"/>
<path d="M232.75 545H218.652V540.43H222.414V523.396H218.652V518.826H232.75V523.396H228.988V540.43H232.75V545ZM263.846 545H257.307V527.65L252.543 538.848H248.061L243.297 527.65V545H237.109V518.826H244.686L250.486 531.746L256.27 518.826H263.846V545ZM291.145 543.506C289.996 543.975 288.502 544.432 286.662 544.877C284.834 545.322 283.029 545.545 281.248 545.545C277.135 545.545 273.854 544.361 271.404 541.994C268.967 539.615 267.748 536.246 267.748 531.887C267.748 527.785 268.967 524.498 271.404 522.025C273.854 519.553 277.199 518.316 281.441 518.316C283.633 518.316 285.414 518.527 286.785 518.949C288.156 519.359 289.574 519.922 291.039 520.637V526.771H290.441C290.125 526.525 289.668 526.18 289.07 525.734C288.484 525.277 287.91 524.891 287.348 524.574C286.691 524.199 285.93 523.877 285.062 523.607C284.207 523.338 283.299 523.203 282.338 523.203C281.213 523.203 280.188 523.379 279.262 523.73C278.336 524.082 277.51 524.621 276.783 525.348C276.092 526.051 275.541 526.941 275.131 528.02C274.732 529.098 274.533 530.352 274.533 531.781C274.533 534.84 275.301 537.096 276.836 538.549C278.371 540.002 280.469 540.729 283.129 540.729C283.363 540.729 283.639 540.723 283.955 540.711C284.271 540.699 284.547 540.682 284.781 540.658V535.525H279.701V530.621H291.145V543.506Z" fill="#2B0F54"/>
<rect width="244" height="361" fill="#3754A2"/>
<rect x="293" width="244" height="361" fill="#3754A2"/>
<path d="M388.75 227H374.652V222.43H378.414V205.396H374.652V200.826H388.75V205.396H384.988V222.43H388.75V227ZM419.846 227H413.307V209.65L408.543 220.848H404.061L399.297 209.65V227H393.109V200.826H400.686L406.486 213.746L412.27 200.826H419.846V227ZM447.145 225.506C445.996 225.975 444.502 226.432 442.662 226.877C440.834 227.322 439.029 227.545 437.248 227.545C433.135 227.545 429.854 226.361 427.404 223.994C424.967 221.615 423.748 218.246 423.748 213.887C423.748 209.785 424.967 206.498 427.404 204.025C429.854 201.553 433.199 200.316 437.441 200.316C439.633 200.316 441.414 200.527 442.785 200.949C444.156 201.359 445.574 201.922 447.039 202.637V208.771H446.441C446.125 208.525 445.668 208.18 445.07 207.734C444.484 207.277 443.91 206.891 443.348 206.574C442.691 206.199 441.93 205.877 441.062 205.607C440.207 205.338 439.299 205.203 438.338 205.203C437.213 205.203 436.188 205.379 435.262 205.73C434.336 206.082 433.51 206.621 432.783 207.348C432.092 208.051 431.541 208.941 431.131 210.02C430.732 211.098 430.533 212.352 430.533 213.781C430.533 216.84 431.301 219.096 432.836 220.549C434.371 222.002 436.469 222.729 439.129 222.729C439.363 222.729 439.639 222.723 439.955 222.711C440.271 222.699 440.547 222.682 440.781 222.658V217.525H435.701V212.621H447.145V225.506Z" fill="#2B0F54"/>
<path d="M97.75 217H83.6523V212.43H87.4141V195.396H83.6523V190.826H97.75V195.396H93.9883V212.43H97.75V217ZM128.846 217H122.307V199.65L117.543 210.848H113.061L108.297 199.65V217H102.109V190.826H109.686L115.486 203.746L121.27 190.826H128.846V217ZM156.145 215.506C154.996 215.975 153.502 216.432 151.662 216.877C149.834 217.322 148.029 217.545 146.248 217.545C142.135 217.545 138.854 216.361 136.404 213.994C133.967 211.615 132.748 208.246 132.748 203.887C132.748 199.785 133.967 196.498 136.404 194.025C138.854 191.553 142.199 190.316 146.441 190.316C148.633 190.316 150.414 190.527 151.785 190.949C153.156 191.359 154.574 191.922 156.039 192.637V198.771H155.441C155.125 198.525 154.668 198.18 154.07 197.734C153.484 197.277 152.91 196.891 152.348 196.574C151.691 196.199 150.93 195.877 150.062 195.607C149.207 195.338 148.299 195.203 147.338 195.203C146.213 195.203 145.188 195.379 144.262 195.73C143.336 196.082 142.51 196.621 141.783 197.348C141.092 198.051 140.541 198.941 140.131 200.02C139.732 201.098 139.533 202.352 139.533 203.781C139.533 206.84 140.301 209.096 141.836 210.549C143.371 212.002 145.469 212.729 148.129 212.729C148.363 212.729 148.639 212.723 148.955 212.711C149.271 212.699 149.547 212.682 149.781 212.658V207.525H144.701V202.621H156.145V215.506Z" fill="#2B0F54"/>
</svg>
