<svg width="251" height="251" viewBox="0 0 251 251" fill="none" xmlns="http://www.w3.org/2000/svg">
<path d="M81.5751 20.9167H169.425C202.892 20.9167 230.083 48.1084 230.083 81.5751V169.425C230.083 185.513 223.693 200.941 212.317 212.317C200.941 223.693 185.513 230.083 169.425 230.083H81.5751C48.1084 230.083 20.9167 202.892 20.9167 169.425V81.5751C20.9167 65.4875 27.3075 50.0588 38.6832 38.6832C50.0588 27.3075 65.4875 20.9167 81.5751 20.9167ZM79.4834 41.8334C69.498 41.8334 59.9216 45.8001 52.8608 52.8608C45.8001 59.9216 41.8334 69.498 41.8334 79.4834V171.517C41.8334 192.329 58.6713 209.167 79.4834 209.167H171.517C181.502 209.167 191.079 205.2 198.139 198.139C205.2 191.079 209.167 181.502 209.167 171.517V79.4834C209.167 58.6713 192.329 41.8334 171.517 41.8334H79.4834ZM180.406 57.5209C183.873 57.5209 187.199 58.8982 189.65 61.3499C192.102 63.8015 193.479 67.1267 193.479 70.5938C193.479 74.061 192.102 77.3861 189.65 79.8378C187.199 82.2894 183.873 83.6667 180.406 83.6667C176.939 83.6667 173.614 82.2894 171.162 79.8378C168.711 77.3861 167.333 74.061 167.333 70.5938C167.333 67.1267 168.711 63.8015 171.162 61.3499C173.614 58.8982 176.939 57.5209 180.406 57.5209ZM125.5 73.2084C139.369 73.2084 152.669 78.7177 162.476 88.5243C172.282 98.3309 177.792 111.631 177.792 125.5C177.792 139.369 172.282 152.669 162.476 162.476C152.669 172.282 139.369 177.792 125.5 177.792C111.631 177.792 98.3309 172.282 88.5243 162.476C78.7177 152.669 73.2084 139.369 73.2084 125.5C73.2084 111.631 78.7177 98.3309 88.5243 88.5243C98.3309 78.7177 111.631 73.2084 125.5 73.2084ZM125.5 94.1251C117.179 94.1251 109.199 97.4306 103.315 103.315C97.4306 109.199 94.1251 117.179 94.1251 125.5C94.1251 133.821 97.4306 141.802 103.315 147.686C109.199 153.57 117.179 156.875 125.5 156.875C133.821 156.875 141.802 153.57 147.686 147.686C153.57 141.802 156.875 133.821 156.875 125.5C156.875 117.179 153.57 109.199 147.686 103.315C141.802 97.4306 133.821 94.1251 125.5 94.1251Z" fill="#1F2B51"/>
</svg>
