<svg width="195" height="87" viewBox="0 0 195 87" fill="none" xmlns="http://www.w3.org/2000/svg">
<path d="M0.382812 19.0078C0.382812 12.9766 2 8.32812 5.23438 5.0625C8.04688 2.21875 11.625 0.796875 15.9688 0.796875C21.7812 0.796875 26.0312 2.70312 28.7188 6.51562C30.2031 8.65625 31 10.8047 31.1094 12.9609H23.8906C23.4219 11.3047 22.8203 10.0547 22.0859 9.21094C20.7734 7.71094 18.8281 6.96094 16.25 6.96094C13.625 6.96094 11.5547 8.02344 10.0391 10.1484C8.52344 12.2578 7.76562 15.25 7.76562 19.125C7.76562 23 8.5625 25.9062 10.1562 27.8438C11.7656 29.7656 13.8047 30.7266 16.2734 30.7266C18.8047 30.7266 20.7344 29.8984 22.0625 28.2422C22.7969 27.3516 23.4062 26.0156 23.8906 24.2344H31.0391C30.4141 28 28.8125 31.0625 26.2344 33.4219C23.6719 35.7812 20.3828 36.9609 16.3672 36.9609C11.3984 36.9609 7.49219 35.3672 4.64844 32.1797C1.80469 28.9766 0.382812 24.5859 0.382812 19.0078ZM46.0156 22.9453H54.7812L50.4688 9.35156L46.0156 22.9453ZM46.4609 1.45312H54.6172L66.8516 36H59.0234L56.7969 28.8984H44.0703L41.6797 36H34.1328L46.4609 1.45312ZM71.1406 1.45312H78.7109L92.4688 25.5703V1.45312H99.1953V36H91.9766L77.8672 11.4609V36H71.1406V1.45312ZM111.172 25.3359C111.391 26.9141 111.82 28.0938 112.461 28.875C113.633 30.2969 115.641 31.0078 118.484 31.0078C120.188 31.0078 121.57 30.8203 122.633 30.4453C124.648 29.7266 125.656 28.3906 125.656 26.4375C125.656 25.2969 125.156 24.4141 124.156 23.7891C123.156 23.1797 121.586 22.6406 119.445 22.1719L115.789 21.3516C112.195 20.5391 109.711 19.6562 108.336 18.7031C106.008 17.1094 104.844 14.6172 104.844 11.2266C104.844 8.13281 105.969 5.5625 108.219 3.51562C110.469 1.46875 113.773 0.445312 118.133 0.445312C121.773 0.445312 124.875 1.41406 127.438 3.35156C130.016 5.27344 131.367 8.07031 131.492 11.7422H124.555C124.43 9.66406 123.523 8.1875 121.836 7.3125C120.711 6.73437 119.312 6.44531 117.641 6.44531C115.781 6.44531 114.297 6.82031 113.188 7.57031C112.078 8.32031 111.523 9.36719 111.523 10.7109C111.523 11.9453 112.07 12.8672 113.164 13.4766C113.867 13.8828 115.367 14.3594 117.664 14.9062L123.617 16.3359C126.227 16.9609 128.195 17.7969 129.523 18.8438C131.586 20.4688 132.617 22.8203 132.617 25.8984C132.617 29.0547 131.406 31.6797 128.984 33.7734C126.578 35.8516 123.172 36.8906 118.766 36.8906C114.266 36.8906 110.727 35.8672 108.148 33.8203C105.57 31.7578 104.281 28.9297 104.281 25.3359H111.172ZM147.406 22.9453H156.172L151.859 9.35156L147.406 22.9453ZM147.852 1.45312H156.008L168.242 36H160.414L158.188 28.8984H145.461L143.07 36H135.523L147.852 1.45312ZM194.188 1.45312V7.57031H183.852V36H176.586V7.57031H166.203V1.45312H194.188ZM37.8418 69.1211C37.8418 66.7773 37.4844 65.002 36.7695 63.7949C36.0547 62.5762 34.9062 61.9668 33.3242 61.9668C32.4219 61.9668 31.5078 62.1777 30.582 62.5996C29.668 63.0215 28.8359 63.5547 28.0859 64.1992V75.4492C28.918 75.8594 29.6562 76.1523 30.3008 76.3281C30.9453 76.4922 31.6543 76.5742 32.4277 76.5742C34.1152 76.5742 35.4395 75.9766 36.4004 74.7812C37.3613 73.5859 37.8418 71.6992 37.8418 69.1211ZM41.252 68.8574C41.252 72.0684 40.4727 74.6523 38.9141 76.6094C37.3555 78.5664 35.4043 79.5449 33.0605 79.5449C31.9941 79.5449 31.0801 79.4102 30.3184 79.1406C29.5684 78.8828 28.8242 78.5312 28.0859 78.0859L27.875 79H24.7812V51.6484H28.0859V61.4219C28.918 60.6719 29.8203 60.0508 30.793 59.5586C31.7656 59.0664 32.8672 58.8203 34.0977 58.8203C36.3125 58.8203 38.0586 59.7109 39.3359 61.4922C40.6133 63.2617 41.252 65.7168 41.252 68.8574ZM60.1133 59.3652L49.5488 86.2422H46.0156L49.5312 78.0508L42.3945 59.3652H45.9629L51.3242 73.9023L56.668 59.3652H60.1133ZM83.2637 79H73.1035V76.3281H76.4434V55.498H73.1035V52.8262H83.2637V55.498H79.9238V76.3281H83.2637V79ZM100.35 69.1211C100.35 66.7773 99.9922 65.002 99.2773 63.7949C98.5625 62.5762 97.4141 61.9668 95.832 61.9668C94.9297 61.9668 94.0156 62.1777 93.0898 62.5996C92.1758 63.0215 91.3438 63.5547 90.5938 64.1992V75.4492C91.4258 75.8594 92.1641 76.1523 92.8086 76.3281C93.4531 76.4922 94.1621 76.5742 94.9355 76.5742C96.623 76.5742 97.9473 75.9766 98.9082 74.7812C99.8691 73.5859 100.35 71.6992 100.35 69.1211ZM103.76 68.8574C103.76 72.0684 102.98 74.6523 101.422 76.6094C99.8633 78.5664 97.9121 79.5449 95.5684 79.5449C94.502 79.5449 93.5879 79.4102 92.8262 79.1406C92.0762 78.8828 91.332 78.5312 90.5938 78.0859L90.3828 79H87.2891V51.6484H90.5938V61.4219C91.4258 60.6719 92.3281 60.0508 93.3008 59.5586C94.2734 59.0664 95.375 58.8203 96.6055 58.8203C98.8203 58.8203 100.566 59.7109 101.844 61.4922C103.121 63.2617 103.76 65.7168 103.76 68.8574ZM129.477 79V67.6445C129.477 66.7422 129.441 65.9102 129.371 65.1484C129.301 64.375 129.154 63.7715 128.932 63.3379C128.697 62.8691 128.363 62.5234 127.93 62.3008C127.496 62.0781 126.91 61.9668 126.172 61.9668C125.492 61.9668 124.76 62.1777 123.975 62.5996C123.201 63.0098 122.398 63.6074 121.566 64.3926C121.578 64.5918 121.59 64.832 121.602 65.1133C121.625 65.3828 121.637 65.7051 121.637 66.0801V79H118.332V67.6445C118.332 66.7422 118.297 65.9102 118.227 65.1484C118.156 64.375 118.01 63.7715 117.787 63.3379C117.553 62.8691 117.219 62.5234 116.785 62.3008C116.352 62.0781 115.766 61.9668 115.027 61.9668C114.312 61.9668 113.562 62.1895 112.777 62.6348C111.992 63.0801 111.23 63.6484 110.492 64.3398V79H107.188V59.3652H110.492V61.5449C111.359 60.6777 112.215 60.0098 113.059 59.541C113.914 59.0605 114.852 58.8203 115.871 58.8203C117.031 58.8203 118.057 59.084 118.947 59.6113C119.85 60.1387 120.535 61.0059 121.004 62.2129C122 61.0996 122.973 60.2559 123.922 59.6816C124.871 59.1074 125.902 58.8203 127.016 58.8203C127.859 58.8203 128.627 58.9551 129.318 59.2246C130.01 59.4824 130.613 59.9043 131.129 60.4902C131.656 61.0879 132.061 61.832 132.342 62.7227C132.635 63.6133 132.781 64.7324 132.781 66.0801V79H129.477ZM145.947 79.457C142.818 79.457 140.387 78.5781 138.652 76.8203C136.93 75.0508 136.068 72.543 136.068 69.2969C136.068 66.0977 136.906 63.5547 138.582 61.668C140.258 59.7695 142.449 58.8203 145.156 58.8203C146.375 58.8203 147.453 58.9961 148.391 59.3477C149.328 59.6992 150.148 60.25 150.852 61C151.555 61.75 152.094 62.6699 152.469 63.7598C152.844 64.8379 153.031 66.1621 153.031 67.7324V69.5254H139.426C139.426 71.8105 140 73.5566 141.148 74.7637C142.297 75.9707 143.885 76.5742 145.912 76.5742C146.639 76.5742 147.348 76.4922 148.039 76.3281C148.742 76.1641 149.375 75.9531 149.938 75.6953C150.535 75.4258 151.039 75.168 151.449 74.9219C151.859 74.6641 152.199 74.4238 152.469 74.2012H152.662V77.8047C152.275 77.957 151.795 78.1504 151.221 78.3848C150.646 78.6074 150.131 78.7832 149.674 78.9121C149.029 79.0879 148.443 79.2227 147.916 79.3164C147.4 79.4102 146.744 79.457 145.947 79.457ZM149.814 66.9941C149.791 66.1035 149.686 65.3359 149.498 64.6914C149.311 64.0469 149.041 63.502 148.689 63.0566C148.303 62.5645 147.805 62.1895 147.195 61.9316C146.598 61.6738 145.854 61.5449 144.963 61.5449C144.084 61.5449 143.334 61.6797 142.713 61.9492C142.104 62.207 141.547 62.5879 141.043 63.0918C140.551 63.6074 140.176 64.1816 139.918 64.8145C139.66 65.4355 139.496 66.1621 139.426 66.9941H149.814ZM164.176 79.4395C162.828 79.4395 161.592 79.2344 160.467 78.8242C159.342 78.4023 158.375 77.7695 157.566 76.9258C156.758 76.082 156.131 75.0215 155.686 73.7441C155.24 72.4551 155.018 70.9434 155.018 69.209C155.018 67.4863 155.246 65.998 155.703 64.7441C156.172 63.4902 156.793 62.4355 157.566 61.5801C158.34 60.7246 159.301 60.0684 160.449 59.6113C161.609 59.1426 162.852 58.9082 164.176 58.9082C165.254 58.9082 166.291 59.0605 167.287 59.3652C168.295 59.6699 169.191 60.0215 169.977 60.4199V64.1289H169.783C169.549 63.9297 169.244 63.7012 168.869 63.4434C168.506 63.1855 168.061 62.9219 167.533 62.6523C167.076 62.418 166.537 62.2129 165.916 62.0371C165.295 61.8613 164.697 61.7734 164.123 61.7734C162.412 61.7734 161.035 62.4238 159.992 63.7246C158.961 65.0137 158.445 66.8418 158.445 69.209C158.445 71.5293 158.943 73.3398 159.939 74.6406C160.947 75.9297 162.342 76.5742 164.123 76.5742C165.201 76.5742 166.227 76.3516 167.199 75.9062C168.172 75.4609 169.033 74.8867 169.783 74.1836H169.977V77.8926C169.648 78.0449 169.238 78.2324 168.746 78.4551C168.254 78.666 167.809 78.8242 167.41 78.9297C166.848 79.0938 166.344 79.2168 165.898 79.2988C165.453 79.3926 164.879 79.4395 164.176 79.4395Z" fill="#1F2B51"/>
</svg>
