<svg width="356" height="44" viewBox="0 0 356 44" fill="none" xmlns="http://www.w3.org/2000/svg">
<path d="M0.15625 19.0078C0.15625 12.9766 1.77344 8.32812 5.00781 5.0625C7.82031 2.21875 11.3984 0.796875 15.7422 0.796875C21.5547 0.796875 25.8047 2.70312 28.4922 6.51562C29.9766 8.65625 30.7734 10.8047 30.8828 12.9609H23.6641C23.1953 11.3047 22.5938 10.0547 21.8594 9.21094C20.5469 7.71094 18.6016 6.96094 16.0234 6.96094C13.3984 6.96094 11.3281 8.02344 9.8125 10.1484C8.29688 12.2578 7.53906 15.25 7.53906 19.125C7.53906 23 8.33594 25.9062 9.92969 27.8438C11.5391 29.7656 13.5781 30.7266 16.0469 30.7266C18.5781 30.7266 20.5078 29.8984 21.8359 28.2422C22.5703 27.3516 23.1797 26.0156 23.6641 24.2344H30.8125C30.1875 28 28.5859 31.0625 26.0078 33.4219C23.4453 35.7812 20.1562 36.9609 16.1406 36.9609C11.1719 36.9609 7.26562 35.3672 4.42188 32.1797C1.57812 28.9766 0.15625 24.5859 0.15625 19.0078ZM45.7891 22.9453H54.5547L50.2422 9.35156L45.7891 22.9453ZM46.2344 1.45312H54.3906L66.625 36H58.7969L56.5703 28.8984H43.8438L41.4531 36H33.9062L46.2344 1.45312ZM70.9141 1.45312H78.4844L92.2422 25.5703V1.45312H98.9688V36H91.75L77.6406 11.4609V36H70.9141V1.45312ZM110.945 25.3359C111.164 26.9141 111.594 28.0938 112.234 28.875C113.406 30.2969 115.414 31.0078 118.258 31.0078C119.961 31.0078 121.344 30.8203 122.406 30.4453C124.422 29.7266 125.43 28.3906 125.43 26.4375C125.43 25.2969 124.93 24.4141 123.93 23.7891C122.93 23.1797 121.359 22.6406 119.219 22.1719L115.562 21.3516C111.969 20.5391 109.484 19.6562 108.109 18.7031C105.781 17.1094 104.617 14.6172 104.617 11.2266C104.617 8.13281 105.742 5.5625 107.992 3.51562C110.242 1.46875 113.547 0.445312 117.906 0.445312C121.547 0.445312 124.648 1.41406 127.211 3.35156C129.789 5.27344 131.141 8.07031 131.266 11.7422H124.328C124.203 9.66406 123.297 8.1875 121.609 7.3125C120.484 6.73437 119.086 6.44531 117.414 6.44531C115.555 6.44531 114.07 6.82031 112.961 7.57031C111.852 8.32031 111.297 9.36719 111.297 10.7109C111.297 11.9453 111.844 12.8672 112.938 13.4766C113.641 13.8828 115.141 14.3594 117.438 14.9062L123.391 16.3359C126 16.9609 127.969 17.7969 129.297 18.8438C131.359 20.4688 132.391 22.8203 132.391 25.8984C132.391 29.0547 131.18 31.6797 128.758 33.7734C126.352 35.8516 122.945 36.8906 118.539 36.8906C114.039 36.8906 110.5 35.8672 107.922 33.8203C105.344 31.7578 104.055 28.9297 104.055 25.3359H110.945ZM147.18 22.9453H155.945L151.633 9.35156L147.18 22.9453ZM147.625 1.45312H155.781L168.016 36H160.188L157.961 28.8984H145.234L142.844 36H135.297L147.625 1.45312ZM193.961 1.45312V7.57031H183.625V36H176.359V7.57031H165.977V1.45312H193.961ZM223.357 26.1211C223.357 23.7773 223 22.002 222.285 20.7949C221.57 19.5762 220.422 18.9668 218.84 18.9668C217.938 18.9668 217.023 19.1777 216.098 19.5996C215.184 20.0215 214.352 20.5547 213.602 21.1992V32.4492C214.434 32.8594 215.172 33.1523 215.816 33.3281C216.461 33.4922 217.17 33.5742 217.943 33.5742C219.631 33.5742 220.955 32.9766 221.916 31.7812C222.877 30.5859 223.357 28.6992 223.357 26.1211ZM226.768 25.8574C226.768 29.0684 225.988 31.6523 224.43 33.6094C222.871 35.5664 220.92 36.5449 218.576 36.5449C217.51 36.5449 216.596 36.4102 215.834 36.1406C215.084 35.8828 214.34 35.5312 213.602 35.0859L213.391 36H210.297V8.64844H213.602V18.4219C214.434 17.6719 215.336 17.0508 216.309 16.5586C217.281 16.0664 218.383 15.8203 219.613 15.8203C221.828 15.8203 223.574 16.7109 224.852 18.4922C226.129 20.2617 226.768 22.7168 226.768 25.8574ZM245.629 16.3652L235.064 43.2422H231.531L235.047 35.0508L227.91 16.3652H231.479L236.84 30.9023L242.184 16.3652H245.629ZM268.779 36H258.619V33.3281H261.959V12.498H258.619V9.82617H268.779V12.498H265.439V33.3281H268.779V36ZM285.865 26.1211C285.865 23.7773 285.508 22.002 284.793 20.7949C284.078 19.5762 282.93 18.9668 281.348 18.9668C280.445 18.9668 279.531 19.1777 278.605 19.5996C277.691 20.0215 276.859 20.5547 276.109 21.1992V32.4492C276.941 32.8594 277.68 33.1523 278.324 33.3281C278.969 33.4922 279.678 33.5742 280.451 33.5742C282.139 33.5742 283.463 32.9766 284.424 31.7812C285.385 30.5859 285.865 28.6992 285.865 26.1211ZM289.275 25.8574C289.275 29.0684 288.496 31.6523 286.938 33.6094C285.379 35.5664 283.428 36.5449 281.084 36.5449C280.018 36.5449 279.104 36.4102 278.342 36.1406C277.592 35.8828 276.848 35.5312 276.109 35.0859L275.898 36H272.805V8.64844H276.109V18.4219C276.941 17.6719 277.844 17.0508 278.816 16.5586C279.789 16.0664 280.891 15.8203 282.121 15.8203C284.336 15.8203 286.082 16.7109 287.359 18.4922C288.637 20.2617 289.275 22.7168 289.275 25.8574ZM314.992 36V24.6445C314.992 23.7422 314.957 22.9102 314.887 22.1484C314.816 21.375 314.67 20.7715 314.447 20.3379C314.213 19.8691 313.879 19.5234 313.445 19.3008C313.012 19.0781 312.426 18.9668 311.688 18.9668C311.008 18.9668 310.275 19.1777 309.49 19.5996C308.717 20.0098 307.914 20.6074 307.082 21.3926C307.094 21.5918 307.105 21.832 307.117 22.1133C307.141 22.3828 307.152 22.7051 307.152 23.0801V36H303.848V24.6445C303.848 23.7422 303.812 22.9102 303.742 22.1484C303.672 21.375 303.525 20.7715 303.303 20.3379C303.068 19.8691 302.734 19.5234 302.301 19.3008C301.867 19.0781 301.281 18.9668 300.543 18.9668C299.828 18.9668 299.078 19.1895 298.293 19.6348C297.508 20.0801 296.746 20.6484 296.008 21.3398V36H292.703V16.3652H296.008V18.5449C296.875 17.6777 297.73 17.0098 298.574 16.541C299.43 16.0605 300.367 15.8203 301.387 15.8203C302.547 15.8203 303.572 16.084 304.463 16.6113C305.365 17.1387 306.051 18.0059 306.52 19.2129C307.516 18.0996 308.488 17.2559 309.438 16.6816C310.387 16.1074 311.418 15.8203 312.531 15.8203C313.375 15.8203 314.143 15.9551 314.834 16.2246C315.525 16.4824 316.129 16.9043 316.645 17.4902C317.172 18.0879 317.576 18.832 317.857 19.7227C318.15 20.6133 318.297 21.7324 318.297 23.0801V36H314.992ZM331.463 36.457C328.334 36.457 325.902 35.5781 324.168 33.8203C322.445 32.0508 321.584 29.543 321.584 26.2969C321.584 23.0977 322.422 20.5547 324.098 18.668C325.773 16.7695 327.965 15.8203 330.672 15.8203C331.891 15.8203 332.969 15.9961 333.906 16.3477C334.844 16.6992 335.664 17.25 336.367 18C337.07 18.75 337.609 19.6699 337.984 20.7598C338.359 21.8379 338.547 23.1621 338.547 24.7324V26.5254H324.941C324.941 28.8105 325.516 30.5566 326.664 31.7637C327.812 32.9707 329.4 33.5742 331.428 33.5742C332.154 33.5742 332.863 33.4922 333.555 33.3281C334.258 33.1641 334.891 32.9531 335.453 32.6953C336.051 32.4258 336.555 32.168 336.965 31.9219C337.375 31.6641 337.715 31.4238 337.984 31.2012H338.178V34.8047C337.791 34.957 337.311 35.1504 336.736 35.3848C336.162 35.6074 335.646 35.7832 335.189 35.9121C334.545 36.0879 333.959 36.2227 333.432 36.3164C332.916 36.4102 332.26 36.457 331.463 36.457ZM335.33 23.9941C335.307 23.1035 335.201 22.3359 335.014 21.6914C334.826 21.0469 334.557 20.502 334.205 20.0566C333.818 19.5645 333.32 19.1895 332.711 18.9316C332.113 18.6738 331.369 18.5449 330.479 18.5449C329.6 18.5449 328.85 18.6797 328.229 18.9492C327.619 19.207 327.062 19.5879 326.559 20.0918C326.066 20.6074 325.691 21.1816 325.434 21.8145C325.176 22.4355 325.012 23.1621 324.941 23.9941H335.33ZM349.691 36.4395C348.344 36.4395 347.107 36.2344 345.982 35.8242C344.857 35.4023 343.891 34.7695 343.082 33.9258C342.273 33.082 341.646 32.0215 341.201 30.7441C340.756 29.4551 340.533 27.9434 340.533 26.209C340.533 24.4863 340.762 22.998 341.219 21.7441C341.688 20.4902 342.309 19.4355 343.082 18.5801C343.855 17.7246 344.816 17.0684 345.965 16.6113C347.125 16.1426 348.367 15.9082 349.691 15.9082C350.77 15.9082 351.807 16.0605 352.803 16.3652C353.811 16.6699 354.707 17.0215 355.492 17.4199V21.1289H355.299C355.064 20.9297 354.76 20.7012 354.385 20.4434C354.021 20.1855 353.576 19.9219 353.049 19.6523C352.592 19.418 352.053 19.2129 351.432 19.0371C350.811 18.8613 350.213 18.7734 349.639 18.7734C347.928 18.7734 346.551 19.4238 345.508 20.7246C344.477 22.0137 343.961 23.8418 343.961 26.209C343.961 28.5293 344.459 30.3398 345.455 31.6406C346.463 32.9297 347.857 33.5742 349.639 33.5742C350.717 33.5742 351.742 33.3516 352.715 32.9062C353.688 32.4609 354.549 31.8867 355.299 31.1836H355.492V34.8926C355.164 35.0449 354.754 35.2324 354.262 35.4551C353.77 35.666 353.324 35.8242 352.926 35.9297C352.363 36.0938 351.859 36.2168 351.414 36.2988C350.969 36.3926 350.395 36.4395 349.691 36.4395Z" fill="white"/>
</svg>
