<svg width="251" height="251" viewBox="0 0 251 251" fill="none" xmlns="http://www.w3.org/2000/svg">
<path d="M104.583 156.875L158.862 125.5L104.583 94.1251V156.875ZM225.482 74.9863C226.841 79.9017 227.783 86.4905 228.41 94.8572C229.142 103.224 229.456 110.44 229.456 116.715L230.083 125.5C230.083 148.404 228.41 165.242 225.482 176.014C222.867 185.426 216.801 191.492 207.389 194.107C202.473 195.466 193.479 196.408 179.674 197.035C166.078 197.767 153.633 198.081 142.129 198.081L125.5 198.708C81.6797 198.708 54.3834 197.035 43.6113 194.107C34.1988 191.492 28.133 185.426 25.5184 176.014C24.1588 171.098 23.2176 164.51 22.5901 156.143C21.858 147.776 21.5442 140.56 21.5442 134.285L20.9167 125.5C20.9167 102.596 22.5901 85.7584 25.5184 74.9863C28.133 65.5738 34.1988 59.508 43.6113 56.8934C48.5268 55.5338 57.5209 54.5926 71.3259 53.9651C84.9218 53.233 97.3672 52.9192 108.871 52.9192L125.5 52.2917C169.321 52.2917 196.617 53.9651 207.389 56.8934C216.801 59.508 222.867 65.5738 225.482 74.9863Z" fill="#1F2B51"/>
</svg>
